<?xml version="1.0" encoding="UTF-8" standalone="no"?>
<svg
   id="Livello_5"
   data-name="Livello 5"
   viewBox="0 0 345.91 213.89998"
   version="1.1"
   sodipodi:docname="Vex-one_logotipo-varianti-05.svg"
   width="345.91"
   height="213.89999"
   inkscape:version="1.4.2 (ebf0e940, 2025-05-08)"
   xmlns:inkscape="http://www.inkscape.org/namespaces/inkscape"
   xmlns:sodipodi="http://sodipodi.sourceforge.net/DTD/sodipodi-0.dtd"
   xmlns="http://www.w3.org/2000/svg"
   xmlns:svg="http://www.w3.org/2000/svg">
  <sodipodi:namedview
     id="namedview6"
     pagecolor="#ffffff"
     bordercolor="#000000"
     borderopacity="0.25"
     inkscape:showpageshadow="2"
     inkscape:pageopacity="0.0"
     inkscape:pagecheckerboard="0"
     inkscape:deskcolor="#d1d1d1"
     inkscape:zoom="0.04031716"
     inkscape:cx="173.62334"
     inkscape:cy="99.213338"
     inkscape:window-width="1440"
     inkscape:window-height="781"
     inkscape:window-x="0"
     inkscape:window-y="31"
     inkscape:window-maximized="1"
     inkscape:current-layer="Livello_5" />
  <defs
     id="defs1">
    <style
       id="style1">
      .cls-1 {
        fill: #b8ff00;
      }
    </style>
  </defs>
  <g
     id="g3"
     transform="translate(-247.99,-190.69)">
    <polygon
       points="395.16,190.81 385.17,190.81 357.75,190.81 321.58,300.36 285.61,190.81 247.99,190.81 299.46,335.91 343.69,335.91 385.17,218.98 385.17,219.13 451.02,219.13 476.37,219.13 457.49,190.81 451.02,190.81 "
       id="polygon1" />
    <polygon
       points="471.11,307.58 371.74,307.58 361.69,335.91 453.14,335.91 "
       id="polygon2" />
    <polygon
       points="463.17,262.12 454.12,276.29 382.84,276.29 392.89,247.95 453.9,247.95 "
       id="polygon3" />
  </g>
  <polygon
     class="cls-1"
     points="592.48,190.69 546.15,190.7 522.66,226.67 499.25,190.82 452.84,190.7 499.49,262.14 451.23,336.03 497.63,335.93 522.66,297.6 547.69,335.93 593.9,335.75 545.82,262.14 "
     id="polygon4"
     transform="translate(-247.99,-190.69)" />
  <g
     id="g6"
     transform="translate(-247.99,-190.69)">
    <path
       d="m 358.66,400.19 c -3.84,-2.05 -6.76,-4.9 -8.76,-8.57 -2,-3.67 -3,-7.88 -3,-12.65 0,-4.77 1,-8.98 3,-12.65 2,-3.67 4.92,-6.52 8.76,-8.57 3.84,-2.05 8.42,-3.07 13.73,-3.07 5.31,0 9.89,1.02 13.73,3.07 3.84,2.05 6.76,4.9 8.76,8.57 2,3.67 3,7.88 3,12.65 0,4.77 -1,8.98 -3,12.65 -2,3.67 -4.92,6.52 -8.76,8.57 -3.84,2.05 -8.42,3.07 -13.73,3.07 -5.31,0 -9.89,-1.02 -13.73,-3.07 z m 25.8,-8.63 c 2.86,-3.08 4.29,-7.27 4.29,-12.58 0,-5.31 -1.49,-9.56 -4.46,-12.62 -2.98,-3.06 -7.17,-4.59 -12.58,-4.59 -4.95,0 -8.8,1.56 -11.55,4.69 -2.75,3.13 -4.12,7.3 -4.12,12.52 0,5.22 1.43,9.5 4.29,12.58 2.86,3.08 6.88,4.62 12.06,4.62 5.18,0 9.2,-1.54 12.06,-4.62 z"
       id="path4" />
    <path
       d="m 407.89,402.18 c -0.82,-0.72 -1.23,-1.71 -1.23,-2.97 v -25.43 c 0,-5.98 1.89,-10.66 5.66,-14.03 3.77,-3.37 9,-5.06 15.68,-5.06 6.68,0 11.9,1.69 15.68,5.06 3.77,3.37 5.66,8.05 5.66,14.03 v 25.43 c 0,1.26 -0.41,2.25 -1.23,2.97 -0.82,0.72 -1.91,1.08 -3.27,1.08 -1.36,0 -2.47,-0.37 -3.31,-1.11 -0.84,-0.74 -1.26,-1.72 -1.26,-2.93 v -25.64 c 0,-3.82 -1.05,-6.75 -3.14,-8.77 -2.09,-2.02 -5.14,-3.04 -9.13,-3.04 -3.99,0 -7.04,1.01 -9.13,3.04 -2.09,2.02 -3.14,4.95 -3.14,8.77 v 25.64 c 0,1.22 -0.42,2.19 -1.26,2.93 -0.84,0.74 -1.94,1.11 -3.31,1.11 -1.37,0 -2.45,-0.36 -3.27,-1.08 z"
       id="path5" />
    <path
       d="m 461.06,401.81 c -1.96,-1.85 -2.94,-4.44 -2.94,-7.77 v -27.76 c 0,-3.24 0.95,-5.76 2.84,-7.56 1.89,-1.8 4.52,-2.71 7.89,-2.71 h 21.8 c 1.4,0 2.48,0.31 3.22,0.94 0.75,0.62 1.12,1.52 1.12,2.67 0,1.15 -0.39,1.98 -1.16,2.6 -0.77,0.62 -1.84,0.94 -3.19,0.94 h -20.19 c -0.94,0 -1.67,0.3 -2.21,0.9 -0.54,0.6 -0.81,1.43 -0.81,2.5 v 9.65 h 17.88 c 1.4,0 2.48,0.31 3.22,0.94 0.75,0.62 1.12,1.52 1.12,2.67 0,1.15 -0.39,1.98 -1.16,2.6 -0.77,0.62 -1.84,0.94 -3.19,0.94 h -17.88 v 10.69 c 0,1.06 0.27,1.9 0.81,2.5 0.54,0.6 1.27,0.9 2.21,0.9 h 19.65 c 1.4,0 2.41,0.31 3.26,0.79 0.85,0.48 1.63,1.72 1.63,2.87 0,1.15 -0.76,2.18 -1.54,2.8 -0.78,0.62 -2,0.68 -3.35,0.68 h -20.77 c -3.55,0 -6.31,-0.92 -8.27,-2.78 z"
       id="path6" />
  </g>
</svg>
