<?xml version="1.0" encoding="UTF-8"?>
<svg xmlns="http://www.w3.org/2000/svg" viewBox="0 0 841.89 595.28">
  <defs>
    <style>
      .cls-1, .cls-2, .cls-3, .cls-4, .cls-5 {
        fill: none;
      }

      .cls-1, .cls-2, .cls-4, .cls-5 {
        stroke-linecap: square;
      }

      .cls-1, .cls-3 {
        stroke-miterlimit: 8;
        stroke-width: 4px;
      }

      .cls-1, .cls-3, .cls-4, .cls-6 {
        stroke: #0078ff;
      }

      .cls-2 {
        stroke: #b8ff00;
      }

      .cls-2, .cls-4, .cls-6, .cls-5 {
        stroke-miterlimit: 10.67;
      }

      .cls-2, .cls-4, .cls-5 {
        stroke-width: 4px;
      }

      .cls-3 {
        stroke-linecap: round;
      }

      .cls-7, .cls-6 {
        fill: #0078ff;
      }

      .cls-8 {
        fill: #2c3338;
      }

      .cls-6 {
        fill-rule: evenodd;
      }

      .cls-5 {
        stroke: #fff;
      }
    </style>
  </defs>
  <g id="Livello_2" data-name="Livello 2">
    <rect class="cls-8" width="841.89" height="595.28"/>
  </g>
  <g id="Livello_1" data-name="Livello 1">
    <g>
      <path class="cls-7" d="M183.85,264.9h-12.5c-5.17,0-9.38,4.2-9.38,9.38v1.56h-10.94c-5.17,0-9.38,4.2-9.38,9.38v6.25c0,1.73,1.4,3.12,3.12,3.12h1.82l3.95,46.11c.42,4.89,4.43,8.57,9.34,8.57h35.4c4.91,0,8.92-3.69,9.34-8.57l3.95-46.11h1.82c1.73,0,3.12-1.4,3.12-3.12v-7.81c0-4.31-3.5-7.81-7.81-7.81h-12.5v-1.56c0-5.17-4.2-9.38-9.38-9.38h0ZM168.22,274.28c0-1.72,1.4-3.12,3.12-3.12h12.5c1.72,0,3.12,1.4,3.12,3.12v1.56h-18.75v-1.56ZM198.41,340.17c-.14,1.63-1.48,2.86-3.11,2.86h-35.4c-1.64,0-2.97-1.23-3.11-2.86l-3.91-45.58h49.44l-3.91,45.58h0ZM207.29,283.65v4.69h-59.38v-3.12c0-1.72,1.4-3.12,3.12-3.12h54.69c.86,0,1.56.7,1.56,1.56h0Z"/>
      <path class="cls-7" d="M165.09,333.65c.07,0,.13,0,.2,0,1.72-.11,3.03-1.59,2.92-3.31l-1.56-25c-.11-1.72-1.58-3.05-3.31-2.92-1.72.11-3.03,1.59-2.92,3.31l1.56,25c.1,1.66,1.48,2.93,3.12,2.93h0Z"/>
      <path class="cls-7" d="M177.6,333.65c1.73,0,3.12-1.4,3.12-3.12v-25c0-1.73-1.4-3.12-3.12-3.12s-3.12,1.4-3.12,3.12v25c0,1.73,1.4,3.12,3.12,3.12Z"/>
      <path class="cls-7" d="M189.9,333.64c.07,0,.13,0,.2,0,1.64,0,3.01-1.27,3.12-2.93l1.56-25c.11-1.72-1.2-3.21-2.92-3.31-1.75-.12-3.21,1.2-3.31,2.92l-1.56,25c-.11,1.72,1.2,3.21,2.92,3.31h0Z"/>
    </g>
    <g>
      <path class="cls-2" d="M137.6,74.63v31.51h48v-31.51l-24-21.82-24,21.82Z"/>
      <rect class="cls-2" x="153.6" y="84.81" width="16" height="21.33"/>
    </g>
    <g>
      <path class="cls-2" d="M161.6,185.79c10.67-11.2,16-21.87,16-32,0-8.84-7.16-16-16-16s-16,7.16-16,16c0,10.13,5.33,20.8,16,32Z"/>
      <circle class="cls-2" cx="161.6" cy="153.79" r="2.67"/>
    </g>
    <g>
      <path class="cls-4" d="M420.94,150.28v31.51h48v-31.51l-24-21.82-24,21.82Z"/>
      <rect class="cls-4" x="436.94" y="160.46" width="16" height="21.33"/>
    </g>
    <g>
      <path class="cls-5" d="M722.1,97.81h5.33v-11.85l-5.33-9.48h-13.33v21.33h2.67-21.33,18.67v-26.67h-34.67v26.67h5.33"/>
      <circle class="cls-5" cx="684.76" cy="97.81" r="5.33"/>
      <circle class="cls-5" cx="716.76" cy="97.81" r="5.33"/>
    </g>
    <g>
      <polygon class="cls-1" points="722.1 309.59 740.1 319.59 740.1 339.59 722.1 349.59 704.1 339.59 704.1 319.59 722.1 309.59"/>
      <polyline class="cls-3" points="704.1 319.59 722.1 329.59 740.1 319.59"/>
      <path class="cls-3" d="M722.1,329.59v20"/>
    </g>
    <g>
      <rect class="cls-1" x="513.17" y="70.48" width="40" height="28"/>
      <path class="cls-3" d="M513.17,70.48l20,18,20-18"/>
    </g>
    <path class="cls-6" d="M774.23,489.73c-.44-.44-1.05-.72-1.73-.72h-3.32c.27-1.37.1-3.63.08-4.96h3.24c1.34,0,2.45-1.09,2.44-2.44-.2-1.36.59-6.69-.72-7.59-.03-.03-.08-.04-.11-.07.5-.54.83-1.25.83-2.05v-29.88c0-.88-.39-1.66-1-2.21.61-.55,1-1.33,1-2.21v-29.89c0-1.67-1.36-3.03-3.03-3.03h-21.73s-8.15,0-8.15,0c-1.67,0-3.03,1.36-3.03,3.03v12.34c-.75-.61-1.66-1.03-2.7-1.03h-17.52s-38.48,0-38.48,0c-2.38,0-4.32,1.95-4.32,4.32v47.28c0,1.18.48,2.26,1.27,3.04-.74.42-1.26,1.19-1.27,2.09v5.86c0,1.34,1.11,2.45,2.44,2.44h3.23c-.02,1.32-.19,3.59.08,4.96h-3.32c-1.34,0-2.44,1.11-2.44,2.44v5.86c0,1.34,1.11,2.45,2.44,2.44h94.06c1.34,0,2.45-1.1,2.44-2.44-.2-1.36.59-6.69-.71-7.59h0ZM767.3,489.02h-13.16c-.7.26-.25-3.48-.37-4.96h13.9c-.12,1.48.34,5.21-.37,4.96h0ZM716.92,484.06c-.02,1.32-.19,3.59.08,4.96h-18.32c.27-1.37.1-3.63.08-4.96h18.16ZM718.52,484.06h13.9c-.12,1.48.34,5.21-.37,4.96h-13.17c-.7.26-.24-3.47-.36-4.96h0ZM734.02,484.06h18.16c-.02,1.32-.19,3.59.08,4.96h-18.32c.27-1.37.1-3.64.09-4.96h0ZM773.32,442.03v29.88c0,.39-.16.74-.41.99s-.61.41-.99.41h-29.88c-.77,0-1.4-.63-1.4-1.4v-29.89c0-.77.63-1.4,1.4-1.4h7.34v10.26c0,.45.36.81.81.81h13.58c.45,0,.81-.36.81-.81v-10.26h7.34c.77,0,1.4.63,1.4,1.4h0ZM751,440.63h11.95v9.45h-11.95v-9.45ZM762.95,406.31v9.45h-11.95v-9.45h11.95ZM740.63,407.71c0-.77.63-1.4,1.4-1.4h7.34v10.26c0,.45.36.81.81.81h13.58c.45,0,.81-.36.81-.81v-10.26s7.34,0,7.34,0c.77,0,1.4.63,1.4,1.4v29.88c0,.39-.16.74-.41.99s-.61.41-.99.41h-29.88c-.77,0-1.4-.63-1.4-1.4v-29.89ZM717.98,420.65v18.37h-19.34v-18.37h19.34ZM677.63,423.34c0-1.48,1.21-2.69,2.7-2.69h16.7s0,19.18,0,19.18c0,.45.36.81.81.81h20.96c.45,0,.81-.36.81-.81v-19.18s16.7,0,16.7,0c1.48,0,2.7,1.21,2.7,2.69v47.29c0,.74-.3,1.42-.79,1.9-.49.49-1.16.79-1.9.79h-56c-1.48,0-2.7-1.21-2.7-2.7v-47.28ZM677.63,481.62v-5.86c0-.45.37-.82.82-.82h94.06c.45,0,.82.37.82.82v5.86c0,.45-.37.82-.82.82h-19.54s-74.52,0-74.52,0c-.45,0-.82-.36-.82-.82h0ZM683.28,484.06h13.9c-.12,1.48.34,5.21-.37,4.96h-13.17c-.7.26-.24-3.48-.36-4.96h0ZM773.32,497.32c0,.45-.37.82-.82.82h-94.06c-.45,0-.82-.36-.82-.82v-5.86c0-.45.37-.82.82-.82h94.06c.45,0,.82.37.82.82v5.86ZM768.84,464.07c1.05-.02,1.05,1.64,0,1.62-2-.16-4.87.53-4.78-.81-.09-1.34,2.78-.66,4.78-.81ZM768.84,469.82h-7.63c-1.05.02-1.05-1.64,0-1.62h7.63c1.05-.02,1.05,1.63,0,1.62ZM726.39,458.29l2.64-2.64s0,0,0,0c.02-.01.03-.02.05-.03.14-.14.3-.18.48-.17.05,0,.09.01.14.02.07.02.14.04.21.07.11.04.2.08.29.17.82.58,1.78,1.89,2.61,2.57.75.73-.41,1.9-1.15,1.15l-1.25-1.25v4.47c.02,1.05-1.64,1.05-1.62,0v-4.47l-1.25,1.25c-.73.75-1.9-.41-1.14-1.15h0ZM717.38,458.29c.83-.69,1.8-2,2.61-2.57.08-.09.17-.12.28-.16.07-.04.15-.06.22-.08.05,0,.09-.02.14-.02.17-.01.33.03.47.16.02.01.04.02.05.03,0,0,0,0,0,0l2.63,2.64c.75.73-.42,1.89-1.15,1.14l-1.25-1.25v4.47c.02,1.05-1.64,1.05-1.62,0v-4.47l-1.25,1.25c-.72.76-1.89-.41-1.14-1.14h0ZM732.24,467.45h-14.28c-1.05.02-1.05-1.64,0-1.62h14.28c1.05-.02,1.05,1.63,0,1.62ZM764.06,430.56c-.09-1.34,2.78-.66,4.78-.81,1.05-.02,1.05,1.64,0,1.62-2-.16-4.87.53-4.78-.81ZM761.21,433.88h7.63c1.05-.02,1.05,1.64,0,1.62h-7.63c-1.05.02-1.05-1.64,0-1.62Z"/>
    <g>
      <path class="cls-4" d="M557.45,242.53c10.67-11.2,16-21.87,16-32,0-8.84-7.16-16-16-16s-16,7.16-16,16c0,10.13,5.33,20.8,16,32Z"/>
      <circle class="cls-7" cx="557.45" cy="210.16" r="4.28"/>
    </g>
    <g>
      <path class="cls-7" d="M764.9,194.13l-61.42-10.81c-1.62-.28-3.1.96-3.1,2.6v66.01c0,1.66,1.52,2.91,3.15,2.59l61.42-12.15c1.24-.24,2.13-1.33,2.13-2.59v-43.05c0-1.28-.92-2.38-2.18-2.6ZM714.3,243.96c0,.89-.73,1.62-1.62,1.62s-1.62-.73-1.62-1.62v-49.71c0-.89.73-1.62,1.62-1.62s1.62.73,1.62,1.62v49.71ZM725.5,243.06c0,.89-.73,1.62-1.62,1.62s-1.62-.73-1.62-1.62v-47.57c0-.89.73-1.62,1.62-1.62s1.62.73,1.62,1.62v47.57ZM736.7,240.95c0,.89-.73,1.62-1.62,1.62s-1.62-.73-1.62-1.62v-43.65c0-.89.73-1.62,1.62-1.62s1.62.73,1.62,1.62v43.65ZM747.9,239.42c0,.89-.73,1.62-1.62,1.62s-1.62-.73-1.62-1.62v-40.98c0-.89.73-1.62,1.62-1.62s1.62.73,1.62,1.62v40.98ZM759.1,238.3c0,.89-.73,1.62-1.62,1.62s-1.62-.73-1.62-1.62v-38.05c0-.89.73-1.62,1.62-1.62s1.62.73,1.62,1.62v38.05Z"/>
      <g>
        <path class="cls-7" d="M672.48,188.78l-14.72,3.81c-1.17.3-1.99,1.36-1.99,2.57v46.22c0,1.18.77,2.21,1.9,2.55l14.8,4.37v-59.51Z"/>
        <path class="cls-7" d="M692.38,183.63l-16.67,4.32c.02.1.03.2.03.3v61l16.56,4.89c1.7.5,3.4-.77,3.4-2.55v-65.39c0-1.74-1.64-3-3.32-2.57Z"/>
      </g>
    </g>
  </g>
</svg>